# xmcd
#
# Track frame offsets:
#	150
#	15325
#	27232
#	41307
#	55679
#	67379
#	82284
#	95896
#	108889
#	122481
#	137674
#	146909
#	159071
#	170867
#	184380
#	198505
#	212567
#	225887
#	240902
#	255342
#	268717
#	277495
#	290850
#	302345
#	313640
#	328965
#
# Disc length: 4693 seconds
#
# Revision: 0
# Processed by: cddbd v1.5.1PL2 Copyright (c) Steve Scherf et al.
# Submitted via: VUPlayer 2.43
#
DISCID=8012531a
DTITLE=Nat King Cole - His Golden Voice
DYEAR=1998
DGENRE=Easy Listening
TTITLE0=Nat King Cole - Body and Soul
TTITLE1=Nat King Cole - Is you Is or Is you Ain't my Baby
TTITLE2=Nat King Cole - My Lips Remember your Kisses
TTITLE3=Nat King Cole - Sweet Lorraine
TTITLE4=Nat King Cole - Honeysuckle Rose
TTITLE5=Nat King Cole - That Ain't Right
TTITLE6=Nat King Cole - Hit that Juve, Jack
TTITLE7=Nat King Cole - Jack the Bell Boy
TTITLE8=Nat King Cole - Blue Because of You
TTITLE9=Nat King Cole - This will Make you Laugh
TTITLE10=Nat King Cole - Solid Potato Salad
TTITLE11=Nat King Cole - Gone with the Draft
TTITLE12=Nat King Cole - Have Fun
TTITLE13=Nat King Cole - What is this Thing called Love
TTITLE14=Nat King Cole - If you Can't Smile, Answer Yes
TTITLE15=Nat King Cole - Come to Baby, Do
TTITLE16=Nat King Cole - It's Only a Paper Moon
TTITLE17=Nat King Cole - Frim Fram Sauce
TTITLE18=Nat King Cole - Call the Police
TTITLE19=Nat King Cole - Baby Ain't I Good for You
TTITLE20=Nat King Cole - I Got Rhythm
TTITLE21=Nat King Cole - It's Better to Be by Yourself
TTITLE22=Nat King Cole - I Can't Give you Anything
TTITLE23=Nat King Cole - Straighten Up and Fly Right
TTITLE24=Esther Phillips - I Can Stand a Little Rain
TTITLE25=George Benson - Theme from 'Summer of '42'
EXTD=
EXTT0=
EXTT1=
EXTT2=
EXTT3=
EXTT4=
EXTT5=
EXTT6=
EXTT7=
EXTT8=
EXTT9=
EXTT10=
EXTT11=
EXTT12=
EXTT13=
EXTT14=
EXTT15=
EXTT16=
EXTT17=
EXTT18=
EXTT19=
EXTT20=
EXTT21=
EXTT22=
EXTT23=
EXTT24=
EXTT25=
PLAYORDER=
